HIERARCHY
ROOT Hips
{
	OFFSET 0.000000 0.000000 0.000000
	CHANNELS 6 Xposition Yposition Zposition Zrotation Yrotation Xrotation 
	JOINT LHipJoint
	{
		OFFSET 0.000000 0.000000 0.000000
		CHANNELS 3 Zrotation Yrotation Xrotation
		JOINT LeftUpLeg
		{
			OFFSET 1.363060 -1.794630 0.839290
			CHANNELS 3 Zrotation Yrotation Xrotation
			JOINT LeftLeg
			{
				OFFSET 2.448110 -6.726130 0.000000
				CHANNELS 3 Zrotation Yrotation Xrotation
				JOINT LeftFoot
				{
					OFFSET 2.562200 -7.039590 0.000000
					CHANNELS 3 Zrotation Yrotation Xrotation
					JOINT LeftToeBase
					{
						OFFSET 0.157640 -0.433110 2.322550
						CHANNELS 3 Zrotation Yrotation Xrotation
						End Site
						{
							OFFSET 0.000000 0.000000 0.000000
						}
					}
				}
			}
		}
	}
	JOINT RHipJoint
	{
		OFFSET 0.000000 0.000000 0.000000
		CHANNELS 3 Zrotation Yrotation Xrotation
		JOINT RightUpLeg
		{
			OFFSET -1.305520 -1.794630 0.839290
			CHANNELS 3 Zrotation Yrotation Xrotation
			JOINT RightLeg
			{
				OFFSET -2.542530 -6.985550 0.000000
				CHANNELS 3 Zrotation Yrotation Xrotation
				JOINT RightFoot
				{
					OFFSET -2.568260 -7.056230 0.000000
					CHANNELS 3 Zrotation Yrotation Xrotation
					JOINT RightToeBase
					{
						OFFSET -0.164730 -0.452590 2.363150
						CHANNELS 3 Zrotation Yrotation Xrotation
						End Site
						{
							OFFSET 0.000000 0.000000 0.000000
						}
					}
				}
			}
		}
	}
}
MOTION
Frames: 22
Frame Time: 0.008333
5.052014 16.260678 0.236769 -5.303134 86.880449 20.804395 -10.006055 -0.568840 -4.526426 -13.751172 3.688779 -34.943999 -2.041237 2.390891 47.388590 3.369132 13.475338 -27.419520 -5.017400 0.000000 -36.246800 8.664273 2.849808 -4.031046 13.022923 -4.674735 -70.229399 0.161403 -6.754188 69.240422 -0.727994 -0.742523 -12.380041 0.101100 -0.000000 -44.713200
5.248129 16.369743 0.265905 -6.921890 86.592134 19.498303 -10.064491 -0.465422 -4.503817 -13.396729 4.133188 -33.949204 -2.047439 2.279311 45.688080 3.186583 13.169607 -25.432913 -4.396900 0.000000 -39.317599 8.538003 2.739511 -3.739935 13.416510 -4.047002 -70.255323 0.496404 -6.526396 66.170625 -0.646303 -0.363348 -11.327588 0.046000 0.000000 -45.538200
5.445102 16.479751 0.297261 -8.355009 86.330177 18.387136 -10.136052 -0.361818 -4.494733 -13.014885 4.621330 -33.048547 -2.043646 2.190536 44.087811 2.966043 12.719406 -23.185796 -3.695800 -0.000000 -42.993800 8.421002 2.616498 -3.461320 13.813191 -3.447530 -70.145820 0.836934 -6.287592 63.000138 -0.541488 0.101815 -10.225324 0.000300 0.000000 -46.250300
5.642681 16.589867 0.331340 -9.448809 86.100587 17.619329 -10.219901 -0.257230 -4.502304 -12.621787 5.152652 -32.239274 -2.032294 2.125682 42.598308 2.712783 12.121587 -20.697081 -2.944100 0.000000 -47.069700 8.313979 2.486016 -3.195404 14.194555 -2.884100 -69.901444 1.181412 -6.036063 59.746064 -0.421580 0.611116 -9.108476 -0.029800 -0.000000 -46.823100
5.840735 16.699213 0.368171 -10.267234 85.904662 17.121739 -10.315853 -0.152138 -4.529423 -12.221283 5.735173 -31.515906 -2.016429 2.085470 41.229880 2.436208 11.382732 -18.013668 -2.183900 -0.000000 -51.216901 8.215882 2.351640 -2.942914 14.558808 -2.358336 -69.517204 1.528076 -5.768482 56.426711 -0.297842 1.110168 -8.020893 -0.043200 -0.000000 -47.161801
6.039355 16.806643 0.408137 -10.545931 85.750338 17.159311 -10.421695 -0.046293 -4.573175 -11.843503 6.347548 -30.875562 -1.997480 2.066902 39.986943 2.152362 10.540227 -15.192852 -1.462000 0.000000 -55.108900 8.125917 2.219501 -2.700130 14.877972 -1.880466 -69.012964 1.871724 -5.482675 53.065503 -0.181922 1.542836 -6.987741 -0.044700 0.000000 -47.315100
6.238502 16.911091 0.450602 -10.560601 85.633210 17.447141 -10.536900 0.057487 -4.634532 -11.477383 7.003004 -30.314203 -1.977571 2.069011 38.883183 1.877302 9.634136 -12.318475 -0.820900 -0.000000 -58.400801 8.041425 2.090394 -2.467376 15.171206 -1.443292 -68.386131 2.208030 -5.174871 49.686168 -0.088224 1.842453 -6.042563 -0.044399 0.000000 -47.164600
6.438318 17.011286 0.495346 -10.248249 85.555904 18.048715 -10.658843 0.157388 -4.709342 -11.138278 7.686250 -29.832942 -1.957107 2.087744 37.929841 1.629713 8.733925 -9.477060 -0.289400 0.000000 -60.861500 7.960837 1.967216 -2.241586 15.432456 -1.049841 -67.659754 2.529138 -4.844187 46.319673 -0.028973 1.952721 -5.190250 -0.056000 0.000000 -46.756200
6.638844 17.105964 0.541867 -9.630089 85.518707 18.942760 -10.784877 0.250990 -4.793751 -10.833736 8.386234 -29.434851 -1.936367 2.119324 37.143476 1.425511 7.918542 -6.765196 0.122901 -0.000000 -62.337400 7.882840 1.851336 -2.021208 15.665594 -0.701882 -66.858088 2.826465 -4.491822 43.002179 -0.014639 1.827657 -4.421846 -0.094500 0.000000 -46.136400
6.839989 17.193926 0.589555 -8.780269 85.519961 20.054270 -10.912159 0.335889 -4.884892 -10.565976 9.097321 -29.126521 -1.915769 2.161014 36.547241 1.275310 7.266799 -4.282261 0.427000 0.000001 -62.754700 7.806946 1.743146 -1.805831 15.879846 -0.398406 -66.007061 3.090674 -4.121949 39.777723 -0.053164 1.434853 -3.712594 -0.174200 -0.000000 -45.375800
7.041732 17.274112 0.637947 -7.496683 85.563820 21.587792 -11.039013 0.410991 -4.976894 -10.355262 9.793502 -28.912329 -1.894715 2.208984 36.159755 1.185323 6.862135 -2.118220 0.652100 -0.000000 -62.087900 7.732884 1.642794 -1.598548 16.074511 -0.162843 -65.145765 3.315337 -3.743762 36.693999 -0.144003 0.784810 -3.025966 -0.304700 0.000000 -44.562400
7.243615 17.345462 0.686371 -5.933110 85.643760 23.386090 -11.163818 0.474293 -5.070377 -10.189890 10.483809 -28.801134 -1.874006 2.264061 36.013431 1.153682 6.750259 -0.356061 0.832000 0.000000 -60.373700 7.661306 1.548649 -1.402508 16.266283 0.011227 -64.298262 3.493452 -3.368318 33.810357 -0.286660 -0.115442 -2.319655 -0.496200 0.000000 -43.785900
7.445297 17.407233 0.734467 -3.924994 85.759243 25.611505 -11.287057 0.524668 -5.163246 -10.076872 11.155992 -28.795320 -1.853044 2.325873 36.129527 1.176320 6.962862 0.946463 0.997600 0.000000 -57.674700 7.592056 1.458480 -1.224990 16.459610 0.103882 -63.496600 3.623555 -3.010933 31.185357 -0.470595 -1.213080 -1.552017 -0.752500 0.000000 -43.141000
7.646332 17.458758 0.781853 -1.338750 85.907854 28.393985 -11.410558 0.560244 -5.255303 -10.013749 11.805430 -28.894019 -1.830898 2.395271 36.526506 1.246383 7.494683 1.757095 1.165300 0.000000 -54.097100 7.524202 1.368249 -1.073497 16.659684 0.102313 -62.765042 3.707618 -2.687696 28.875916 -0.681013 -2.440026 -0.689994 -1.073200 -0.000000 -42.703800
7.846184 17.499512 0.828422 2.050240 86.087721 31.953441 -11.537298 0.577627 -5.346889 -9.995760 12.425472 -29.091966 -1.805470 2.472701 37.215036 1.355916 8.307775 2.073751 1.332700 -0.000000 -49.797600 7.455529 1.272212 -0.954468 16.864672 -0.003149 -62.121780 3.750715 -2.413787 26.930836 -0.899982 -3.715801 0.283164 -1.451900 -0.000001 -42.519000
8.044475 17.528977 0.874246 6.582638 86.299415 36.627310 -11.669974 0.571083 -5.438562 -10.014972 13.005839 -29.379100 -1.772476 2.556945 38.196438 1.496245 9.337099 1.932228 1.482000 -0.000000 -45.043500 7.383493 1.162676 -0.870557 17.062747 -0.214778 -61.578207 3.759401 -2.201473 25.384134 -1.109844 -4.959291 1.364542 -1.874300 -0.000000 -42.610600
8.240851 17.546906 0.919378 12.808643 86.552535 42.958180 -11.806256 0.531861 -5.531082 -10.061346 13.527453 -29.732009 -1.724577 2.642836 39.462117 1.658212 10.503459 1.390198 1.586600 -0.000000 -40.046800 7.309043 1.029669 -0.826187 17.247359 -0.552912 -61.130540 3.745563 -2.059841 24.242052 -1.290771 -6.071110 2.521694 -2.309901 -0.000000 -42.904700
8.435098 17.552741 0.964340 21.314014 86.852272 51.534308 -11.928471 0.452352 -5.625794 -10.115225 13.974659 -30.139003 -1.652866 2.724001 41.002211 1.831601 11.718646 0.548681 1.625200 0.000000 -35.268000 7.245590 0.869396 -0.810395 17.390761 -0.992019 -60.774981 3.713865 -1.992250 23.499657 -1.436052 -7.000138 3.701359 -2.727800 0.000001 -43.349400
8.627190 17.546097 1.009552 32.576241 87.192150 62.834214 -11.995743 0.338430 -5.723905 -10.150932 14.333981 -30.586771 -1.552496 2.797082 42.802221 2.006727 12.903039 -0.494215 1.585400 -0.000001 -31.004300 7.228053 0.695666 -0.816227 17.485871 -1.511969 -60.488171 3.671742 -1.996304 23.127170 -1.539815 -7.690745 4.823159 -3.084500 -0.000000 -43.806901
8.817191 17.526527 1.055531 46.188318 87.522122 76.458278 -11.965405 0.225094 -5.824604 -10.145278 14.611852 -31.076535 -1.431834 2.874514 44.839680 2.175188 13.990989 -1.645080 1.467900 0.000001 -27.482400 7.297933 0.551833 -0.841342 17.534419 -2.062350 -60.234165 3.622499 -2.058963 23.091393 -1.599151 -8.109753 5.792085 -3.338700 0.000000 -44.132600
9.005255 17.493672 1.102724 60.346247 87.761555 90.611398 -11.846306 0.158546 -5.923248 -10.100832 14.828817 -31.617033 -1.308522 2.981859 47.081018 2.329393 14.935298 -2.827900 1.283600 0.000000 -24.791400 7.456140 0.482526 -0.891739 17.532272 -2.585488 -59.978615 3.566478 -2.158341 23.366234 -1.611040 -8.241129 6.503115 -3.457900 0.000000 -44.183100
9.191630 17.447219 1.151449 72.808475 87.861191 103.058577 -11.700523 0.152990 -6.014387 -10.043479 14.996775 -32.205915 -1.190771 3.133564 49.489456 2.461303 15.703527 -3.986248 1.049601 0.000000 -22.908000 7.653690 0.490268 -0.969146 17.455633 -3.048860 -59.711007 3.503981 -2.275503 23.931087 -1.578405 -8.095187 6.842151 -3.425500 0.000000 -43.830300
